<svg xmlns="http://www.w3.org/2000/svg" viewBox="0 0 800 1000"><defs><linearGradient id="g" x1="0" y1="0" x2="0" y2="1"><stop stop-color="#ead9dc"/><stop offset="1" stop-color="#f7eee9"/></linearGradient></defs><rect width="800" height="1000" fill="url(#g)"/><rect x="90" y="80" width="620" height="840" fill="#fff9f7" stroke="#8f4f5d" stroke-width="3"/><circle cx="400" cy="442" r="250" fill="#d7b8bd" opacity=".32"/><path d="M421 195c-105 20-184 120-184 252 0 149 85 270 222 305-41-60-58-126-47-197 12-80 63-129 118-175-2-91-40-200-109-185Z" fill="#fff"/><path d="M421 225c-34 75-37 153-5 215 28 55 75 88 139 96M513 336c-45 22-72 58-78 109M492 445c30 14 58 15 83 4" fill="none" stroke="#8f4f5d" stroke-width="7" stroke-linecap="round"/><path d="M110 785h580" stroke="#c6a36d" stroke-width="10"/><circle cx="177" cy="155" r="24" fill="#c6a36d"/><circle cx="630" cy="822" r="54" fill="none" stroke="#8f4f5d" stroke-width="4"/></svg>