<svg xmlns="http://www.w3.org/2000/svg" width="1400" height="1050" viewBox="0 0 1400 1050" role="img" aria-labelledby="title desc">
<title id="title">Direzione premium per La Beautè Roma</title>
<desc id="desc">Percorso elegante del check-up in quattro fasi con forme morbide e finiture calde.</desc>
<defs><linearGradient id="bg" x1="0" y1="0" x2="1" y2="1"><stop stop-color="#160e0c"/><stop offset=".55" stop-color="#4f3228"/><stop offset="1" stop-color="#b79268"/></linearGradient><linearGradient id="panel" x1="0" y1="0" x2="1" y2="1"><stop stop-color="#fff" stop-opacity=".2"/><stop offset="1" stop-color="#fff" stop-opacity=".04"/></linearGradient></defs>
<rect width="1400" height="1050" fill="url(#bg)"/><path d="M0 820C300 700 380 930 700 790s460-80 700-230v490H0Z" fill="#e8c9c1" opacity=".18"/>
<g transform="translate(135 175)"><rect width="1130" height="670" rx="65" fill="url(#panel)" stroke="#f0d9cd" stroke-opacity=".4"/>
<text x="85" y="100" fill="#f0d9cd" font-family="Georgia, serif" font-size="30" letter-spacing="7">IL CHECK-UP IN QUATTRO FASI</text>
<g font-family="Arial, sans-serif">
<g transform="translate(90 180)"><circle cx="85" cy="85" r="82" fill="#b79268"/><text x="85" y="75" fill="#1b1110" font-size="20" text-anchor="middle">01</text><text x="85" y="110" fill="#1b1110" font-size="24" font-weight="700" text-anchor="middle">Ascolto</text></g>
<path d="M265 265H375" stroke="#e8c9c1" stroke-width="3" stroke-dasharray="10 10"/>
<g transform="translate(375 180)"><circle cx="85" cy="85" r="82" fill="#e8c9c1"/><text x="85" y="75" fill="#1b1110" font-size="20" text-anchor="middle">02</text><text x="85" y="110" fill="#1b1110" font-size="24" font-weight="700" text-anchor="middle">Obiettivi</text></g>
<path d="M550 265H660" stroke="#e8c9c1" stroke-width="3" stroke-dasharray="10 10"/>
<g transform="translate(660 180)"><circle cx="85" cy="85" r="82" fill="#b79268"/><text x="85" y="75" fill="#1b1110" font-size="20" text-anchor="middle">03</text><text x="85" y="110" fill="#1b1110" font-size="24" font-weight="700" text-anchor="middle">Percorso</text></g>
<path d="M835 265H945" stroke="#e8c9c1" stroke-width="3" stroke-dasharray="10 10"/>
<g transform="translate(945 180)"><circle cx="85" cy="85" r="82" fill="#e8c9c1"/><text x="85" y="75" fill="#1b1110" font-size="20" text-anchor="middle">04</text><text x="85" y="110" fill="#1b1110" font-size="24" font-weight="700" text-anchor="middle">Chiarezza</text></g>
</g>
<g transform="translate(100 440)" font-family="Arial, sans-serif"><rect width="290" height="120" rx="28" fill="#221613" fill-opacity=".75"/><text x="24" y="42" fill="#e8c9c1" font-size="17">RIMODELLAMENTO</text><text x="24" y="82" fill="#fff" font-size="26">LB-Shape · T-Pump</text><rect x="320" width="290" height="120" rx="28" fill="#221613" fill-opacity=".75"/><text x="344" y="42" fill="#e8c9c1" font-size="17">VISO</text><text x="344" y="82" fill="#fff" font-size="26">Aqualab · Needling</text><rect x="640" width="290" height="120" rx="28" fill="#221613" fill-opacity=".75"/><text x="664" y="42" fill="#e8c9c1" font-size="17">EPILAZIONE</text><text x="664" y="82" fill="#fff" font-size="26">Laser a fibra ottica</text></g></g>
<g font-family="Georgia, serif" fill="#fff"><text x="85" y="100" font-size="30" letter-spacing="7">LA BEAUTÈ ROMA</text><text x="85" y="965" font-size="52">Prima il metodo. Poi la tecnologia.</text></g>
</svg>