<svg xmlns="http://www.w3.org/2000/svg" width="1400" height="1050" viewBox="0 0 1400 1050" role="img" aria-labelledby="title desc">
<title id="title">Direzione visiva tecnologica per Sun Body</title>
<desc id="desc">Interfaccia luminosa con analisi pelle, moduli tecnologici e percorsi beauty.</desc>
<defs><linearGradient id="bg" x1="0" y1="0" x2="1" y2="1"><stop stop-color="#06171a"/><stop offset=".5" stop-color="#0d3435"/><stop offset="1" stop-color="#bd7d20"/></linearGradient><filter id="blur"><feGaussianBlur stdDeviation="35"/></filter></defs>
<rect width="1400" height="1050" fill="url(#bg)"/><circle cx="1100" cy="170" r="220" fill="#f6b44b" opacity=".5" filter="url(#blur)"/><circle cx="210" cy="870" r="240" fill="#45d2c6" opacity=".35" filter="url(#blur)"/>
<g transform="translate(250 170)"><rect width="900" height="700" rx="70" fill="#071416" fill-opacity=".74" stroke="#8ee9df" stroke-opacity=".5" stroke-width="3"/>
<circle cx="340" cy="300" r="190" fill="none" stroke="#45d2c6" stroke-width="5"/><circle cx="340" cy="300" r="145" fill="none" stroke="#f6b44b" stroke-width="14" stroke-dasharray="320 120"/>
<path d="M280 260c0-55 35-100 80-100s80 45 80 100c0 55-36 135-80 135s-80-80-80-135Z" fill="#d8f7f3" opacity=".9"/>
<g transform="translate(600 130)" font-family="Arial, sans-serif"><text fill="#8ee9df" font-size="22" letter-spacing="5">SKIN ANALYSIS</text><rect y="45" width="230" height="18" rx="9" fill="#1d4546"/><rect y="45" width="180" height="18" rx="9" fill="#45d2c6"/><text y="110" fill="#fff" font-size="38" font-weight="700">FaceLab</text><text y="155" fill="#b7d7d5" font-size="22">idratazione · texture · tono</text>
<g transform="translate(0 220)"><rect width="250" height="95" rx="24" fill="#173536"/><text x="22" y="38" fill="#f6b44b" font-size="16">BODY TECH</text><text x="22" y="70" fill="#fff" font-size="24">Rewind Plus</text></g>
<g transform="translate(0 340)"><rect width="250" height="95" rx="24" fill="#173536"/><text x="22" y="38" fill="#45d2c6" font-size="16">BEAUTY ESSENTIALS</text><text x="22" y="70" fill="#fff" font-size="24">Laser · Nails · Relax</text></g></g></g>
<g font-family="Arial, sans-serif" fill="#fff"><text x="90" y="95" font-size="26" letter-spacing="8">SUN BODY • BEAUTY INTELLIGENCE</text><text x="90" y="980" font-size="44" font-weight="700">Tecnologia chiara. Percorsi facili da scegliere.</text></g>
</svg>