<svg xmlns="http://www.w3.org/2000/svg" viewBox="0 0 800 1000"><defs><linearGradient id="g" x1="0" y1="0" x2="1" y2="1"><stop stop-color="#f6e8d9"/><stop offset="1" stop-color="#d8cdb8"/></linearGradient></defs><rect width="800" height="1000" fill="url(#g)"/><circle cx="610" cy="180" r="150" fill="#a56649" opacity=".13"/><path d="M465 220c-98 22-183 119-183 257 0 161 101 265 232 283-66-80-92-164-69-237 25-82 94-116 145-173-20-84-58-146-125-130Z" fill="#fff8ef"/><path d="M463 246c-28 68-36 144-7 207 22 48 66 79 120 95-26 23-50 59-59 105" fill="none" stroke="#7a4d3b" stroke-width="8" stroke-linecap="round"/><path d="M545 319c-42 23-67 58-73 105M529 421c23 15 49 17 72 8" fill="none" stroke="#7a4d3b" stroke-width="6" stroke-linecap="round"/><g fill="none" stroke="#6f7d63" stroke-width="9" stroke-linecap="round"><path d="M168 800c52-178 128-286 225-347"/><path d="M248 681c-78-11-120-52-127-122 77 8 122 49 127 122Z"/><path d="M296 594c-9-76 23-129 91-157 12 77-18 130-91 157Z"/><path d="M198 764c-59 6-99-17-121-69 61-5 101 17 121 69Z"/></g><circle cx="150" cy="150" r="36" fill="#fff" opacity=".7"/><circle cx="685" cy="835" r="58" fill="#fff" opacity=".5"/></svg>