<svg xmlns="http://www.w3.org/2000/svg" viewBox="0 0 900 680"><rect width="900" height="680" fill="#e9f4f1"/><path d="M0 430c160-96 310-96 450 0s290 96 450 0v250H0Z" fill="#b9d6d0"/><path d="M0 505c160-96 310-96 450 0s290 96 450 0" fill="none" stroke="#fff" stroke-width="14" opacity=".8"/><circle cx="455" cy="250" r="150" fill="#fffaf3"/><path d="M455 105c-75 33-126 113-126 205 0 66 31 119 84 153-19-47-18-93 4-136 22-43 57-73 103-104-3-72-24-139-65-118Z" fill="#d7c2a5"/><path d="M451 136c-25 62-24 123 2 176 21 41 54 67 100 78" fill="none" stroke="#4f7f83" stroke-width="7" stroke-linecap="round"/><path d="M540 226c-39 18-62 48-69 89" fill="none" stroke="#4f7f83" stroke-width="6" stroke-linecap="round"/></svg>