<svg xmlns="http://www.w3.org/2000/svg" viewBox="0 0 1200 600"><defs><linearGradient id="g" x1="0" y1="0" x2="1" y2="1"><stop stop-color="#dcefeb"/><stop offset="1" stop-color="#f8f2e7"/></linearGradient></defs><rect width="1200" height="600" rx="40" fill="url(#g)"/><circle cx="930" cy="155" r="190" fill="#8ab1ab" opacity=".28"/><circle cx="250" cy="470" r="240" fill="#fff" opacity=".48"/><g transform="translate(520 85)"><ellipse cx="90" cy="380" rx="250" ry="55" fill="#6e9793" opacity=".22"/><rect x="-90" y="325" width="340" height="84" rx="42" fill="#f8f4eb"/><rect x="-35" y="240" width="230" height="105" rx="52" fill="#d7c2a5"/><rect x="20" y="155" width="120" height="105" rx="52" fill="#faf8f2"/><path d="M75 162c-4-76 45-122 118-138-6 83-48 129-118 138Z" fill="#4f7f83"/><path d="M83 159c43-37 78-70 102-117" fill="none" stroke="#d5e8e3" stroke-width="7" stroke-linecap="round"/></g><path d="M70 130c86 22 143 78 173 168" fill="none" stroke="#4f7f83" stroke-width="9" stroke-linecap="round" opacity=".65"/><path d="M1130 420c-87 12-151 57-192 135" fill="none" stroke="#4f7f83" stroke-width="9" stroke-linecap="round" opacity=".55"/></svg>